<svg width="20" height="18" viewBox="0 0 20 18" fill="none" xmlns="http://www.w3.org/2000/svg">
<symbol xmlns="http://www.w3.org/2000/svg" viewBox="0 0 20 18" id="star-1">
    <path d="M9.81109 0.543478C9.87335 0.364366 10.1267 0.364365 10.1889 0.543477L12.3054 6.63248C12.3329 6.71149 12.4067 6.76506 12.4903 6.76677L18.9353 6.89811C19.1249 6.90197 19.2032 7.14288 19.0521 7.25744L13.9151 11.152C13.8485 11.2025 13.8203 11.2892 13.8445 11.3693L15.7112 17.5394C15.7661 17.7209 15.5612 17.8698 15.4056 17.7615L10.1142 14.0795C10.0456 14.0317 9.95443 14.0317 9.88576 14.0795L4.59443 17.7615C4.43878 17.8698 4.23385 17.7209 4.28876 17.5394L6.15547 11.3693C6.1797 11.2892 6.15153 11.2025 6.08487 11.152L0.947936 7.25744C0.79683 7.14288 0.875105 6.90197 1.06469 6.89811L7.50972 6.76677C7.59335 6.76506 7.66709 6.71149 7.69455 6.63248L9.81109 0.543478Z"></path>
  </symbol>

  <symbol xmlns="http://www.w3.org/2000/svg" viewBox="0 0 20 18" id="star-2">
    <path d="M9.81109 0.543478C9.87335 0.364366 10.1267 0.364365 10.1889 0.543477L12.3054 6.63248C12.3329 6.71149 12.4067 6.76506 12.4903 6.76677L18.9353 6.89811C19.1249 6.90197 19.2032 7.14288 19.0521 7.25744L13.9151 11.152C13.8485 11.2025 13.8203 11.2892 13.8445 11.3693L15.7112 17.5394C15.7661 17.7209 15.5612 17.8698 15.4056 17.7615L10.1142 14.0795C10.0456 14.0317 9.95443 14.0317 9.88576 14.0795L4.59443 17.7615C4.43878 17.8698 4.23385 17.7209 4.28876 17.5394L6.15547 11.3693C6.1797 11.2892 6.15153 11.2025 6.08487 11.152L0.947936 7.25744C0.79683 7.14288 0.875105 6.90197 1.06469 6.89811L7.50972 6.76677C7.59335 6.76506 7.66709 6.71149 7.69455 6.63248L9.81109 0.543478Z"></path>
  </symbol>

  <symbol xmlns="http://www.w3.org/2000/svg" viewBox="0 0 20 18" id="star-3">
    <path d="M9.81109 0.543478C9.87335 0.364366 10.1267 0.364365 10.1889 0.543477L12.3054 6.63248C12.3329 6.71149 12.4067 6.76506 12.4903 6.76677L18.9353 6.89811C19.1249 6.90197 19.2032 7.14288 19.0521 7.25744L13.9151 11.152C13.8485 11.2025 13.8203 11.2892 13.8445 11.3693L15.7112 17.5394C15.7661 17.7209 15.5612 17.8698 15.4056 17.7615L10.1142 14.0795C10.0456 14.0317 9.95443 14.0317 9.88576 14.0795L4.59443 17.7615C4.43878 17.8698 4.23385 17.7209 4.28876 17.5394L6.15547 11.3693C6.1797 11.2892 6.15153 11.2025 6.08487 11.152L0.947936 7.25744C0.79683 7.14288 0.875105 6.90197 1.06469 6.89811L7.50972 6.76677C7.59335 6.76506 7.66709 6.71149 7.69455 6.63248L9.81109 0.543478Z"></path>
  </symbol>

  <symbol xmlns="http://www.w3.org/2000/svg" viewBox="0 0 20 18" id="star-4">
    <path d="M9.81109 0.543478C9.87335 0.364366 10.1267 0.364365 10.1889 0.543477L12.3054 6.63248C12.3329 6.71149 12.4067 6.76506 12.4903 6.76677L18.9353 6.89811C19.1249 6.90197 19.2032 7.14288 19.0521 7.25744L13.9151 11.152C13.8485 11.2025 13.8203 11.2892 13.8445 11.3693L15.7112 17.5394C15.7661 17.7209 15.5612 17.8698 15.4056 17.7615L10.1142 14.0795C10.0456 14.0317 9.95443 14.0317 9.88576 14.0795L4.59443 17.7615C4.43878 17.8698 4.23385 17.7209 4.28876 17.5394L6.15547 11.3693C6.1797 11.2892 6.15153 11.2025 6.08487 11.152L0.947936 7.25744C0.79683 7.14288 0.875105 6.90197 1.06469 6.89811L7.50972 6.76677C7.59335 6.76506 7.66709 6.71149 7.69455 6.63248L9.81109 0.543478Z"></path>
  </symbol>

  <symbol xmlns="http://www.w3.org/2000/svg" viewBox="0 0 20 18" id="star-5">
    <path d="M9.81109 0.543478C9.87335 0.364366 10.1267 0.364365 10.1889 0.543477L12.3054 6.63248C12.3329 6.71149 12.4067 6.76506 12.4903 6.76677L18.9353 6.89811C19.1249 6.90197 19.2032 7.14288 19.0521 7.25744L13.9151 11.152C13.8485 11.2025 13.8203 11.2892 13.8445 11.3693L15.7112 17.5394C15.7661 17.7209 15.5612 17.8698 15.4056 17.7615L10.1142 14.0795C10.0456 14.0317 9.95443 14.0317 9.88576 14.0795L4.59443 17.7615C4.43878 17.8698 4.23385 17.7209 4.28876 17.5394L6.15547 11.3693C6.1797 11.2892 6.15153 11.2025 6.08487 11.152L0.947936 7.25744C0.79683 7.14288 0.875105 6.90197 1.06469 6.89811L7.50972 6.76677C7.59335 6.76506 7.66709 6.71149 7.69455 6.63248L9.81109 0.543478Z"></path>
  </symbol>
</svg>

